# xmcd
#
# Track frame offsets:
#	150
#	12189
#	26992
#	41055
#	52489
#	66846
#	92536
#	105411
#	117588
#	130018
#	145196
#	155218
#	167928
#	181772
#	195189
#	207398
#	219094
#	238248
#	251777
#	263036
#
# Disc length: 3668 seconds
#
# Revision: 2
# Processed by: cddbd v1.5.2PL0 Copyright (c) Steve Scherf et al.
# Submitted via: audiograbber 1.83.01
#
DISCID=270e5214
DTITLE=Various Artist - Crooners Serenade
DYEAR=2008
DGENRE=Jazz
TTITLE0=Nat King Cole - Nature Boy
TTITLE1=Frank Sinatra - Everything happens to me
TTITLE2=Bing Crosby - Please
TTITLE3=Johnny Mercer - I'm Gonna See My Baby
TTITLE4=Frank Sinatra - Sweet Lorraine
TTITLE5=Fred Astaire - Cheek To Cheek
TTITLE6=Chet Baker - The Thrill Is Gone
TTITLE7=Mel Tormé - My Baby Just Cares For Me
TTITLE8=Bing Crosby - On The Sunny Side Of The Street
TTITLE9=Frank Sinatra - Mam'selle
TTITLE10=Joe Carroll - I'm In A Mess
TTITLE11=Johnny Mercer - Personality
TTITLE12=Fred Astaire - I Won't Dance
TTITLE13=Billy Daniels - I Owe This Dream To You
TTITLE14=Billy Eckstine - If That's The Way You Feel
TTITLE15=Nat King Cole - Blue And Sentimental
TTITLE16=Frank Sinatra - Stormy Weather
TTITLE17=Melvin Moore - I Couldn't Beat The Rap
TTITLE18=Nat King Cole and Johnny Mercer - You Can't Make Money Dreaming
TTITLE19=Nat King Cole and Johnny Mercer - Save The Bones For Henry Jones
EXTD=YEAR: 2008
EXTT0=
EXTT1=
EXTT2=
EXTT3=
EXTT4=
EXTT5=
EXTT6=
EXTT7=
EXTT8=
EXTT9=
EXTT10=
EXTT11=
EXTT12=
EXTT13=
EXTT14=
EXTT15=
EXTT16=
EXTT17=
EXTT18=
EXTT19=
PLAYORDER=
